<?xml version="1.0" standalone="no"?>
<!DOCTYPE svg PUBLIC "-//W3C//DTD SVG 1.1//EN" "http://www.w3.org/Graphics/SVG/1.1/DTD/svg11.dtd" >
<!--
2013-9-30: Created.
-->
<svg>
<metadata>
Created by iconfont
</metadata>
<defs>

<font id="iconfont" horiz-adv-x="1024" >
  <font-face
    font-family="iconfont"
    font-weight="500"
    font-stretch="normal"
    units-per-em="1024"
    ascent="896"
    descent="-128"
  />
    <missing-glyph />
    
    <glyph glyph-name="x" unicode="x" horiz-adv-x="1001"
d="M281 543q-27 -1 -53 -1h-83q-18 0 -36.5 -6t-32.5 -18.5t-23 -32t-9 -45.5v-76h912v41q0 16 -0.5 30t-0.5 18q0 13 -5 29t-17 29.5t-31.5 22.5t-49.5 9h-133v-97h-438v97zM955 310v-52q0 -23 0.5 -52t0.5 -58t-10.5 -47.5t-26 -30t-33 -16t-31.5 -4.5q-14 -1 -29.5 -0.5
t-29.5 0.5h-32l-45 128h-439l-44 -128h-29h-34q-20 0 -45 1q-25 0 -41 9.5t-25.5 23t-13.5 29.5t-4 30v167h911zM163 247q-12 0 -21 -8.5t-9 -21.5t9 -21.5t21 -8.5q13 0 22 8.5t9 21.5t-9 21.5t-22 8.5zM316 123q-8 -26 -14 -48q-5 -19 -10.5 -37t-7.5 -25t-3 -15t1 -14.5
t9.5 -10.5t21.5 -4h37h67h81h80h64h36q23 0 34 12t2 38q-5 13 -9.5 30.5t-9.5 34.5q-5 19 -11 39h-368zM336 498v228q0 11 2.5 23t10 21.5t20.5 15.5t34 6h188q31 0 51.5 -14.5t20.5 -52.5v-227h-327z" />
    

    
    <glyph glyph-name="location" unicode="&#58961;" d="M512 288c-105.888 0-192 86.112-192 192s86.112 192 192 192 192-86.112 192-192S617.888 288 512 288zM512 608c-70.592 0-128-57.408-128-128s57.408-128 128-128c70.592 0 128 57.408 128 128S582.592 608 512 608zM512-64c-7.936 0-15.904 2.944-22.08 8.832-12.768 12.224-13.248 32.48-1.056 45.248C575.392 80.8 800 345.664 800 480c0 158.784-129.184 288-288 288-158.784 0-288-129.216-288-288 0-75.616 72.544-206.08 204.256-367.424 11.2-13.728 9.152-33.888-4.544-45.024-13.696-11.168-33.888-9.152-45.024 4.544C233.568 249.824 160 387.072 160 480 160 674.08 317.92 832 512 832s352-157.92 352-352c0-187.36-315.424-520.032-328.832-534.08C528.864-60.672 520.448-64 512-64z"  horiz-adv-x="1024" />

    
    <glyph glyph-name="search" unicode="&#58972;" d="M953.504-12.256l-152.608 163.296c61.856 74.496 95.872 167.36 95.872 265.12 0 229.344-186.624 415.968-416.032 415.968-229.344 0-415.968-186.592-415.968-415.968s186.624-415.968 416-415.968c60.096 0.032 118.048 12.576 172.224 37.248 16.096 7.328 23.2 26.304 15.872 42.368-7.328 16.128-26.4 23.264-42.368 15.872-45.856-20.864-94.88-31.456-145.76-31.488-194.08 0-351.968 157.888-351.968 351.968 0 194.048 157.888 351.968 351.968 351.968 194.112 0 352.032-157.888 352.032-351.968 0-91.36-34.848-177.92-98.08-243.744-12.256-12.736-11.84-32.992 0.864-45.248 0.96-0.928 2.208-1.28 3.296-2.08 0.864-1.28 1.312-2.752 2.4-3.904l165.504-177.088c6.272-6.752 14.816-10.144 23.36-10.144 7.84 0 15.68 2.848 21.856 8.64C964.864-45.408 965.568-25.152 953.504-12.256z"  horiz-adv-x="1024" />

    
    <glyph glyph-name="unfold" unicode="&#58977;" d="M890.336 565.088c-12.576 12.416-32.8 12.352-45.248-0.192L517.248 234.048 184.832 563.488c-12.576 12.448-32.8 12.352-45.28-0.192-12.448-12.576-12.352-32.832 0.192-45.28l353.312-350.112c0.544-0.544 1.248-0.672 1.792-1.184 0.128-0.128 0.16-0.288 0.288-0.416 6.24-6.176 14.4-9.28 22.528-9.28 8.224 0 16.48 3.168 22.72 9.472l350.112 353.312C902.976 532.384 902.88 552.64 890.336 565.088z"  horiz-adv-x="1024" />

    
    <glyph glyph-name="back" unicode="&#59001;" d="M671.968-16c-12.288 0-24.576 4.672-33.952 14.048L286.048 350.016c-18.752 18.72-18.752 49.12 0 67.872l351.968 352c18.752 18.752 49.12 18.752 67.872 0 18.752-18.72 18.752-49.12 0-67.872l-318.016-318.048 318.016-318.016c18.752-18.752 18.752-49.12 0-67.872C696.544-11.328 684.256-16 671.968-16z"  horiz-adv-x="1024" />

    
    <glyph glyph-name="form" unicode="&#59033;" d="M800-32 224-32c-52.928 0-96 43.072-96 96L128 704c0 52.928 43.072 96 96 96l576 0c52.928 0 96-43.072 96-96l0-640C896 11.072 852.928-32 800-32zM224 736C206.368 736 192 721.632 192 704l0-640c0-17.664 14.368-32 32-32l576 0c17.664 0 32 14.336 32 32L832 704c0 17.632-14.336 32-32 32L224 736zM640.992 351.136 287.776 351.136c-17.664 0-32 14.336-32 32s14.336 32 32 32l353.216 0c17.696 0 32-14.336 32-32S658.688 351.136 640.992 351.136zM734.88 160.48 287.648 160.48c-17.664 0-32 14.304-32 32s14.336 32 32 32l447.232 0c17.696 0 32-14.304 32-32S752.576 160.48 734.88 160.48zM303.712 590.656m-48 0a1.5 1.5 0 1 0 96 0 1.5 1.5 0 1 0-96 0ZM511.104 590.656m-48 0a1.5 1.5 0 1 0 96 0 1.5 1.5 0 1 0-96 0ZM719.232 590.656m-48 0a1.5 1.5 0 1 0 96 0 1.5 1.5 0 1 0-96 0Z"  horiz-adv-x="1024" />

    
    <glyph glyph-name="right" unicode="&#59043;" d="M761.056 363.872c0.512 0.992 1.344 1.824 1.792 2.848 8.8 18.304 5.92 40.704-9.664 55.424L399.936 756.256c-19.264 18.208-49.632 17.344-67.872-1.888-18.208-19.264-17.376-49.632 1.888-67.872l316.96-299.84-315.712-304.288c-19.072-18.4-19.648-48.768-1.248-67.872 9.408-9.792 21.984-14.688 34.56-14.688 12 0 24 4.48 33.312 13.44l350.048 337.376c0.672 0.672 0.928 1.6 1.6 2.304 0.512 0.48 1.056 0.832 1.568 1.344C757.76 357.12 759.2 360.608 761.056 363.872z"  horiz-adv-x="1024" />

    
    <glyph glyph-name="cart" unicode="&#59055;" d="M940.8 611.2c-16 19.2-38.4 28.8-64 28.8h-524.8c-19.2 0-32-12.8-32-32s12.8-32 32-32h524.8c6.4 0 12.8-3.2 16-6.4s6.4-9.6 3.2-19.2l-48-336c0-9.6-12.8-19.2-25.6-19.2h-486.4c-12.8 0-25.6 16-25.6 28.8l-54.4 371.2-28.8 156.8c-6.4 44.8-44.8 80-92.8 80h-38.4c-19.2 0-32-16-32-32s12.8-32 32-32h38.4c12.8 0 25.6-9.6 28.8-25.6l28.8-156.8 51.2-371.2c6.4-48 44.8-86.4 89.6-86.4h486.4c44.8 0 83.2 32 89.6 73.6l51.2 339.2c3.2 25.6-3.2 51.2-19.2 70.4zM259.2 0c0-35.346 28.654-64 64-64s64 28.654 64 64c0 35.346-28.654 64-64 64-35.346 0-64-28.654-64-64zM768 0c0-35.346 28.654-64 64-64s64 28.654 64 64c0 35.346-28.654 64-64 64-35.346 0-64-28.654-64-64z"  horiz-adv-x="1024" />

    
    <glyph glyph-name="activity" unicode="&#59077;" d="M719.328 256c-64.608 0-121.44 28.736-133.12 35.072C575.776 295.232 511.52 320 460 320c-46.688 0-108-21.312-127.68-29.536-9.888-4.128-21.152-3.04-30.08 2.912C293.344 299.328 288 309.312 288 320L288 736c0 13.024 7.904 24.736 19.936 29.632C311.392 767.04 393.248 800 463.328 800c70.656 0 146.464-33.344 149.664-34.752 1.184-0.512 2.336-1.12 3.456-1.792C616.832 763.232 663.424 736 716.672 736c52.992 0 98.208 27.04 98.656 27.328 9.952 5.952 22.24 6.208 32.352 0.544C857.728 758.176 864 747.552 864 736l0-416c0-10.848-5.504-20.928-14.592-26.848C847.104 291.616 791.328 256 719.328 256zM460 384c68.928 0 148.928-33.056 152.32-34.464 1.216-0.512 2.4-1.088 3.552-1.76C616.32 347.52 665.728 320 719.328 320c33.984 0 63.776 11.2 80.672 19.136L800 686.688C777.28 678.88 748.288 672 716.672 672c-64.768 0-119.552 28.864-131.008 35.328C575.808 711.488 515.648 736 463.328 736 424.224 736 377.856 722.4 352 713.6l0-348.48C381.92 374.272 422.592 384 460 384zM544-32 192-32 192 768c0 17.664 14.336 32 32 32s32-14.336 32-32l0-736 288 0c17.696 0 32-14.304 32-32S561.696-32 544-32zM224-32 160.992-32c-17.664 0-32 14.304-32 32s14.336 32 32 32L224 32c17.664 0 32-14.304 32-32S241.664-32 224-32z"  horiz-adv-x="1024" />

    
    <glyph glyph-name="safe" unicode="&#59241;" d="M712.416 538.944l-233.344-235.808-103.264 106.112c-12.384 12.704-32.608 12.928-45.248 0.64-12.672-12.32-12.96-32.608-0.64-45.248l126.016-129.504c0.064-0.096 0.192-0.096 0.256-0.192 0.064-0.064 0.096-0.192 0.16-0.256 2.08-2.048 4.608-3.264 7.008-4.64 1.184-0.672 2.176-1.728 3.392-2.208 3.872-1.6 7.968-2.4 12.096-2.4 4.064 0 8.128 0.8 11.968 2.336 1.248 0.512 2.208 1.536 3.392 2.176 2.4 1.344 4.896 2.528 6.944 4.544 0.064 0.064 0.096 0.192 0.192 0.256 0.064 0.096 0.16 0.128 0.256 0.192l256.288 259.008c12.448 12.576 12.32 32.8-0.256 45.248C745.12 551.616 724.8 551.52 712.416 538.944zM517.44 831.52c-3.552 0.608-7.168 0.64-10.72 0.032-95.712-16.064-408-77.728-408-196.864 0-385.792 312.032-701.344 413.312-701.344 99.52 0 418.688 323.488 418.688 701.344C930.688 748.064 641.696 810.112 517.44 831.52zM512-2.624C453.216 3.008 162.688 278.56 162.688 634.688c0 38.464 165.792 101.344 349.248 132.832 186.336-32.768 354.752-95.68 354.752-132.832C866.688 279.264 571.68 3.2 512-2.624z"  horiz-adv-x="1024" />

    
    <glyph glyph-name="my" unicode="&#59275;" d="M800 512c0 160-128 288-288 288s-288-128-288-288c0-108.8 57.6-201.6 147.2-249.6-121.6-48-214.4-153.6-240-288-3.2-16 6.4-35.2 25.6-38.4h6.4c16 0 28.8 9.6 32 25.6 28.8 150.4 160 259.2 313.6 262.4h6.4c156.8 0 284.8 128 284.8 288zM288 512c0 124.8 99.2 224 224 224s224-99.2 224-224c0-121.6-99.2-220.8-220.8-224h-9.6c-121.6 3.2-217.6 102.4-217.6 224zM723.2 220.8c-16 9.6-35.2 6.4-44.8-9.6-9.6-16-6.4-35.2 9.6-44.8 73.6-51.2 124.8-121.6 140.8-204.8 3.2-16 16-25.6 32-25.6h6.4c16 3.2 28.8 19.2 25.6 38.4-19.2 99.2-80 185.6-169.6 246.4z"  horiz-adv-x="1024" />

    
    <glyph glyph-name="female" unicode="&#58913;" d="M404.869051 131.492032c-7.881504 5.061272-10.122545 15.370059-5.248537 23.661909 4.855588 7.470135 15.370059 10.103102 23.456225 5.266957 12.941753-8.29185 27.116591-14.566764 41.889039-19.030425 14.361079-4.239558 29.732162-6.461155 45.530986-6.461155 16.173354 0 31.150464 2.221598 45.718251 6.461155 14.566764 4.463662 28.741601 10.738575 42.094724 19.030425 7.67582 4.837168 18.20871 2.204202 23.269983-5.266957 4.855588-8.29185 2.614547-18.600637-5.266957-23.661909-15.780405-9.93528-32.56979-17.816784-50.797943-23.082718-17.797341-5.266957-36.211736-7.695263-55.018058-7.695263-18.619056 0-37.239136 2.428306-55.036477 7.695263C437.643502 113.675248 420.649456 121.556753 404.869051 131.492032L404.869051 131.492032zM512.103354 828.745247 512.103354 828.745247c51.002604 0 94.722338-38.247092 102.398158-88.615247 5.266957 1.62501 10.514471 2.222621 15.986089 2.222621 18.414395 0 35.016515-7.899924 47.137577-19.833721 6.070252-6.274914 11.317767-13.763468 14.978133-22.242584 4.855588 1.400906 10.103102 2.614547 15.575744 2.614547 16.397459 0 31.374568-7.283894 41.889039-17.6111 10.720156-10.906397 17.386996-25.678846 17.386996-42.281989 0-10.737552-2.820232-21.234627-8.067746-29.936823 4.445242-4.463662 8.479115-8.90788 11.933797-12.548804 59.276035-64.768119 84.768639-128.283712 92.257194-196.261942 7.488555-65.569368-2.222621-132.951011-13.558807-208.810746-6.274914-41.086767-11.746532-81.762165-12.139481-117.78766 0-34.586726 4.052293-66.970274 17.405415-95.095845 6.890944-14.174837 0.803295-30.945803-13.353123-37.631062-3.025916-1.605567-5.65786-2.241041-8.497535-2.632967-26.314319-4.239558-49.770544-3.847631-71.02359 0-23.269983 4.463662-43.701315 13.763468-59.893088 26.930349-19.422352 15.164375-32.981159 36.399001-39.050388 60.07933l-2.838651-1.213641c-45.530986-26.090215-97.318466-39.461757-149.721976-39.461757-53.019541 0-105.628736 14.174837-151.776775 40.675398l-0.391926 0c-20.431332-76.887135-101.166097-98.327446-170.975023-86.617753-15.575744 2.632967-26.108634 17.199731-23.680329 32.401967 0.617054 2.614547 1.606591 5.247514 2.446725 7.470135 13.129019 28.125571 17.59268 60.509119 17.59268 95.095845-0.411369 36.025495-5.864568 76.701916-11.933797 117.78766-11.728112 76.270081-19.440771 143.857409-10.532891 209.614042 8.90788 67.567885 35.81981 131.12134 94.685499 195.45967l1.64343 1.418302 8.067746 8.703219c-6.069229 9.30083-9.898441 20.431332-9.898441 32.365128 0 16.60212 6.66684 31.374568 17.59268 42.281989 10.532891 10.327206 25.511024 17.6111 41.684378 17.6111 5.658883 0 10.924817-1.213641 16.191774-2.614547 3.044336 8.479115 8.31027 15.96767 14.566764 22.242584l1.213641 1.233084c11.728112 11.112082 27.938306 18.600637 45.736671 18.600637 5.658883 0 10.906397-0.597611 16.173354-2.222621C416.821267 790.497131 460.521558 828.745247 512.103354 828.745247L512.103354 828.745247zM615.491049 611.622184 615.491049 611.622184c-67.979254 12.773931-139.39477 12.773931-207.374024 0-42.113143-7.862062-78.120218-15.575744-108.467387-48.145533l-1.195222-1.419326c-50.200332-55.018058-72.853261-108.467387-80.753185-164.512844-7.899924-58.249659-0.205685-121.801067 10.532891-193.441711 6.66684-42.673915 12.344143-85.160565 12.737092-126.227889 0-28.349675-2.428306-55.653531-9.30083-81.556481 50.573839 2.427282 99.951433 51.582819 65.550948 103.201453-68.3896 103.388718-20.431332 260.617669-15.575744 275.987728 0.205685 1.213641 0.597611 2.222621 1.419326 3.230578 3.436262 8.703219 13.763468 12.139481 22.262026 8.498558 6.069229-2.63399 11.728112-4.855588 16.995069-7.283894 48.145533-18.209734 90.426499-17.388019 125.443014-2.01796l0 0c34.793434 15.575744 63.142086 46.128597 82.975806 88.429005l0 0.804319c2.632967 5.060249 4.836145 10.719132 6.872524 16.788361l0.187265 0 0.411369 1.419326c2.221598 5.864568 8.29185 23.867594 8.702196 44.298925 0.205685 9.524934 8.105608 16.60212 17.405415 16.60212 9.30083 0 16.789385-7.899924 16.60212-17.199731-0.410346-22.858614-5.677303-42.281989-8.90788-51.189869 15.57472-39.666418 33.783431-71.63962 58.268078-96.720855 25.491581-25.697265 58.658981-44.503587 104.396675-56.437383 6.069229-1.830695 10.943236-7.096628 12.139481-13.371542 11.746532-62.712297 15.59314-127.460973-13.540388-185.336102-25.697265-52.011584-28.535917-115.13525 39.853683-127.685078 5.266957-1.213641 10.924817-2.016937 16.995069-2.016937-6.872524 25.90295-9.30083 53.206806-9.095145 81.556481 0.186242 41.067324 6.256494 83.554998 12.325723 126.227889 10.94426 71.845305 20.244067 135.789663 13.763468 194.07616-6.256494 55.839773-27.52796 109.252263-77.708849 163.878394C697.457876 596.869179 664.272056 602.732723 615.491049 611.622184L615.491049 611.622184zM512.103354 793.933393 512.103354 793.933393c-38.434358 0-69.584821-30.944779-69.584821-69.192895l0.391926-4.855588-0.391926 0 0.391926-0.205685 0.410346-4.631484c0.39295-4.874007-0.803295-9.93528-4.462638-14.174837-6.070252-6.686283-16.97665-7.488555-23.867594-1.027399-3.044336 2.63399-6.069229 4.463662-9.31925 5.471618l-0.802272 0.391926c-3.623527 1.64343-7.489578 2.241041-11.729136 2.241041-8.497535 0-16.191774-3.230578-21.869077-8.497535l-0.803295-0.803295c-5.658883-5.881964-9.299807-14.174837-9.299807-23.082718l-0.39295 0c0.39295-4.445242-1.233084-9.095145-4.071735-11.932774-6.462179-7.470135-17.405415-7.900947-24.27794-2.01796-2.222621 2.428306-4.445242 3.641947-6.872524 4.649903l-1.027399 0.205685c-2.596128 1.195222-5.864568 2.035356-9.095145 2.035356-6.872524 0-12.941753-3.044336-17.405415-7.507998-4.836145-4.445242-7.67582-10.924817-7.67582-18.003026 0-6.274914 2.428306-11.933797 6.069229-16.173354 3.044336-3.660366 7.283894-6.293333 11.728112-7.694239 29.15297 11.130502 60.490699 20.22667 93.694939 26.090215 72.218812 13.558807 148.302651 13.558807 219.942271 0 33.186843-5.863545 64.748676-14.95869 93.882204-26.090215 4.445242 1.400906 8.90788 4.033873 11.746532 7.694239 3.641947 4.239558 5.864568 9.898441 5.864568 16.173354 0 7.078209-2.632967 13.558807-7.096628 18.003026-4.445242 4.463662-10.924817 7.507998-18.003026 7.507998-3.025916 0-6.274914-0.840134-8.90788-2.035356l-0.186242 0c-2.446725-0.803295-5.266957-2.428306-7.694239-4.855588l0 0c-3.044336-2.446725-7.283894-4.445242-11.746532-4.052293-8.90788 0-16.5837 7.507998-16.5837 16.807804l0 1.195222c0 8.90788-3.847631 17.200754-9.711176 23.082718l0.410346 0-0.410346 0c-5.677303 5.658883-13.745049 9.30083-22.858614 9.30083-4.052293 0-7.899924-0.597611-11.541871-2.241041-3.641947-0.988514-7.078209-3.230578-10.122545-5.864568-3.436262-3.436262-8.497535-4.836145-13.745049-4.239558-9.31925 1.213641-15.799848 9.711176-14.566764 19.216667l0.597611 4.464685 0 0.596588 0.205685 4.855588C581.314669 762.988614 550.145785 793.933393 512.103354 793.933393L512.103354 793.933393zM715.25624 294.959058 715.25624 294.959058c-46.315862 13.371542-81.332377 34.213219-109.271706 62.750159-21.439288 21.439288-38.434358 46.931892-52.795437 78.083379-22.447245-41.479717-53.617152-72.218812-91.659583-89.027639-42.916439-19.403932-94.29255-20.224624-151.141302 1.233084l-1.233084 0.39295c-19.609617-75.468832-26.91193-160.66726 18.003026-220.148979 41.086767-53.821813 116.964922-82.975806 183.748954-82.975806C677.625178 45.267229 738.114854 157.394982 715.25624 294.959058L715.25624 294.959058zM414.580227 286.685627 414.580227 286.685627c15.780405 0 28.741601-12.755512 28.741601-28.535917s-12.961196-28.741601-28.741601-28.741601c-15.370059 0-28.331255 12.961196-28.331255 28.741601S399.209144 286.685627 414.580227 286.685627L414.580227 286.685627zM606.395904 286.685627 606.395904 286.685627c15.799848 0 28.535917-12.755512 28.535917-28.535917s-12.737092-28.741601-28.535917-28.741601c-15.780405 0-28.517497 12.961196-28.517497 28.741601S590.615499 286.685627 606.395904 286.685627L606.395904 286.685627z"  horiz-adv-x="1024" />

    
    <glyph glyph-name="male" unicode="&#58917;" d="M512.327458 830.428585c217.337957 0 340.886831-179.540096 358.423229-379.998617 30.456662-24.201192 48.443315-61.09752 48.443315-99.758028 0-32.44597-11.751648-62.000076-31.522947-84.232426-16.448624-18.643616-38.454824-32.425504-62.901609-38.885636-30.662347-53.754275-73.773214-99.327216-125.764332-131.301442-4.450359-2.461051-8.655124-5.332449-12.900821-7.7935l0-131.998313c0-10.43977-8.428973-18.889209-19.114336-18.889209-3.547803 0-6.665817 1.353834-9.987468 2.891863l-65.097624 39.788192c-7.547907-9.762341-19.565615-16.448624-32.44597-16.448624l-94.650707 0c-12.899798 0-25.124214 6.686283-32.466436 16.448624l-65.322751-39.788192c-2.89084-1.538029-6.235005-2.891863-9.782807-2.891863-10.213619 0-18.889209 8.449439-18.889209 18.889209L338.346985 88.458937c-4.225231 2.461051-8.655124 5.127787-13.105482 7.7935-51.786457 31.974225-95.101985 77.547167-125.558647 131.301442-24.651446 6.665817-46.864354 20.243043-62.8617 38.885636-19.996426 22.23235-32.015158 51.786457-32.015158 84.232426 0 38.660508 18.23327 75.556836 48.443315 99.758028C171.009815 650.889513 294.579155 830.428585 512.327458 830.428585L512.327458 830.428585zM648.100748 70.022029 648.100748 70.022029c-15.32094-6.461155-31.749098-11.773138-48.443315-16.449647l0-33.553187 48.443315-29.983895L648.100748 70.022029 648.100748 70.022029zM424.342568 20.019195 424.342568 20.019195l0 33.553187c-16.428158 4.676509-32.876782 9.988492-48.443315 16.449647l0-79.986729L424.342568 20.019195 424.342568 20.019195zM562.124608 46.250626 562.124608 46.250626c-16.448624-2.461051-33.122375-3.343141-49.79715-3.343141-16.879436 0-33.757848 0.88209-50.207495 3.343141 0-14.008039 0-27.789926 0-42.00365 0-0.655939 0.451278-1.333368 0.902556-1.784646 0.430812-0.451278 0.88209-0.88209 1.784646-0.88209l94.650707 0c0.88209 0 1.312902 0.430812 1.76418 0.88209 0.450255 0.451278 0.901533 1.127683 0.901533 1.784646C562.124608 18.4607 562.124608 32.242588 562.124608 46.250626L562.124608 46.250626zM406.807193 370.463706 406.807193 370.463706c17.104563 0 31.318286-14.028505 31.318286-31.338752 0-17.576307-14.2127-31.112602-31.318286-31.112602-17.125029 0-31.338752 13.536294-31.338752 31.112602C375.46844 356.435201 389.68114 370.463706 406.807193 370.463706L406.807193 370.463706zM617.664551 370.463706 617.664551 370.463706c16.899902 0 31.134091-14.028505 31.134091-31.338752 0-17.576307-14.234189-31.112602-31.134091-31.112602-17.535375 0-31.543414 13.536294-31.543414 31.112602C586.121138 356.435201 600.129176 370.463706 617.664551 370.463706L617.664551 370.463706zM395.895679 200.235696 395.895679 200.235696c-8.428973 5.53711-11.095709 16.879436-5.783727 25.780153 5.352915 8.655124 17.125029 11.546987 25.780153 5.783727 14.685467-9.106402 30.230512-15.997346 46.227858-20.672832 16.017812-4.882194 32.897248-7.343245 50.207495-7.343245 17.125029 0 33.799804 2.461051 49.79715 7.343245 15.997346 4.675486 31.769564 11.56643 46.207391 20.672832 8.900717 5.763261 20.447704 2.871397 25.780153-5.783727 5.783727-8.900717 2.891863-20.243043-5.783727-25.780153-17.330714-10.685363-35.993772-19.545148-55.991222-25.103748-19.114336-5.783727-39.542598-9.125845-60.010769-9.125845-20.85805 0-41.326221 3.342118-60.420091 9.125845C431.889451 180.690548 413.001265 189.550333 395.895679 200.235696L395.895679 200.235696zM810.104445 427.337018 810.104445 427.337018c-123.548874-24.877597-204.868971-17.104563-266.212084 12.880355-53.775764 25.327852-91.533716 66.675562-128.881322 116.882034-9.782807-42.659589-32.44597-73.095785-64.871473-94.446046-35.993772-22.867824-82.673931-34.414811-136.449695-36.875862-1.784646-8.224312-6.64535-15.115256-14.43885-19.771299-19.771299-11.567453-31.79003-32.650631-31.79003-55.334259 0-16.448624 6.235005-31.543414 16.222473-42.885739 10.029424-11.320836 24.242124-19.565615 40.23947-21.350261l0-0.225127c9.763364-1.086751 19.114336-7.321756 23.77038-16.653285 25.555026-49.756217 63.764256-91.102904 110.422925-120.205733 44.669362-27.789926 97.337909-43.787272 154.210197-43.787272 56.462966 0 108.905362 15.997346 153.779386 43.787272 45.776579 28.220738 84.007299 69.342298 109.110023 117.54002 4.225231 10.460236 13.556761 18.23327 25.124214 19.545148 15.997346 1.784646 30.210046 10.029424 40.424688 21.350261 9.782807 11.341303 15.997346 26.437116 15.997346 42.885739 0 22.684652-11.998265 43.766806-31.994692 55.334259C817.446667 410.662243 811.889091 418.435277 810.104445 427.337018L810.104445 427.337018zM217.689974 463.535451 217.689974 463.535451c44.669362 3.344165 83.328847 12.243859 112.001887 30.68179 32.876782 21.781072 52.873208 57.549717 52.873208 112.883977l0 0c0 5.783727 2.891863 11.320836 8.019651 15.115256 8.428973 6.008854 19.996426 4.226255 26.210965-4.450359 45.326325-62.882166 84.437088-116.226095 143.094022-143.976112 54.882981-26.682709 129.557728-32.917714 246.421342-9.126868C785.882787 626.442728 688.340217 767.77257 512.327458 767.77257 335.925842 767.77257 237.686401 625.10936 217.689974 463.535451L217.689974 463.535451z"  horiz-adv-x="1024" />

    
    <glyph glyph-name="soundlight" unicode="&#59304;" d="M512.128-64.533333c-247.04 0-448 200.981333-448 448s200.96 448 448 448c247.018667 0 448-200.96 448-448S759.146667-64.533333 512.128-64.533333zM512.128 788.8c-223.509333 0-405.333333-181.824-405.333333-405.333333 0-223.509333 181.824-405.333333 405.333333-405.333333s405.333333 181.824 405.333333 405.333333C917.461333 606.976 735.616 788.8 512.128 788.8zM598.634667 128c-4.992 0-10.026667 1.749333-14.058667 5.290667-8.853333 7.765333-9.749333 21.248-1.984 30.101333 51.584 58.858667 80 137.216 80 220.608 0 83.456-28.416 161.792-80.042667 220.586667-7.765333 8.853333-6.890667 22.336 1.962667 30.101333 8.874667 7.744 22.314667 6.912 30.122667-1.962667 58.432-66.581333 90.624-154.922667 90.624-248.746667 0-93.76-32.170667-182.08-90.581333-248.725333C610.453333 130.453333 604.544 128 598.634667 128zM471.722667 192.704c-5.034667 0-10.112 1.770667-14.186667 5.397333-8.810667 7.829333-9.578667 21.333333-1.749333 30.122667 36.906667 41.450667 57.258667 96.768 57.258667 155.712 0 59.754667-20.757333 115.541333-58.474667 157.098667-7.914667 8.725333-7.253333 22.229333 1.472 30.144 8.746667 7.936 22.229333 7.253333 30.144-1.472 44.842667-49.429333 69.525333-115.392 69.525333-185.770667 0-69.418667-24.170667-134.805333-68.053333-184.085333C483.456 195.114667 477.610667 192.704 471.722667 192.704zM362.538667 264.256c-6.250667 0-12.48 2.752-16.682667 8.021333-7.338667 9.216-5.824 22.656 3.370667 29.973333 22.016 17.557333 34.645333 42.581333 34.645333 68.650667 0 26.090667-12.586667 51.114667-34.56 68.672-9.216 7.36-10.709333 20.778667-3.349333 29.973333 7.338667 9.216 20.8 10.709333 29.973333 3.349333 32.149333-25.685333 50.602667-62.869333 50.602667-101.994667 0-39.104-18.474667-76.309333-50.688-101.994667C371.904 265.770667 367.189333 264.256 362.538667 264.256z"  horiz-adv-x="1024" />

    
    <glyph glyph-name="attentionforbid" unicode="&#59314;" d="M605.376 405.472l61.696-59.04C670.016 358.56 672 371.008 672 384c0 88.224-71.776 160-160 160-15.424 0-30.016-2.88-44.16-6.976l61.44-58.784C566.944 471.36 596.832 442.528 605.376 405.472zM556.256 231.008l-61.376 58.752c-37.792 6.848-67.84 35.744-76.32 72.96l-61.632 58.944C353.984 409.504 352 397.024 352 384c0-88.224 71.776-160 160-160C527.456 224 542.08 226.912 556.256 231.008zM178.944 759.136C166.144 771.328 145.888 770.88 133.696 758.112 121.472 745.344 121.92 725.088 134.688 712.864l736-704C876.896 2.944 884.832 0 892.8 0c8.448 0 16.832 3.328 23.136 9.888 12.224 12.768 11.744 33.024-0.992 45.248L178.944 759.136zM512 96c-169.28 0-335.328 113.568-414.88 283.936-0.16 0.608-0.352 1.152-0.544 1.728-0.064 0.544-0.224 0.992-0.288 1.312C96.256 383.328 96 383.776 96 384.224L96 384.64c0 0.736 0.448 1.472 0.544 2.208 0.128 0.448 0.352 0.832 0.48 1.28 29.728 64.128 72 120.256 122.144 165.312L172.864 597.696c-55.488-50.656-102.08-113.152-134.624-184.256-1.056-2.112-1.792-4.096-2.272-5.888-0.256-0.544-0.448-1.056-0.64-1.6-1.76-5.056-1.76-8.48-1.632-7.712-0.8-3.744-1.6-11.2-1.6-11.2-0.224-2.24-0.192-4.032 0.064-6.272 0 0 0.704-13.472 1.056-14.816l4.544-13.632C126.4 158.656 316.992 30.24 512 30.24c69.824 0 138.976 17.792 203.104 47.936l-49.856 48.576C616.128 106.88 564.224 96 512 96zM992 383.904c0 5.792-0.992 10.592-1.28 11.136-0.192 2.912-1.152 8.096-2.08 10.816-0.256 0.672-0.544 1.376-0.832 2.08-0.48 1.568-1.024 3.104-1.6 4.32C897.664 605.92 707.104 736 512 736c-69.76 0-138.88-16.864-203.008-47.072l49.856-47.648C407.968 661.12 459.808 672 512 672c169.76 0 336.192-114.048 414.752-283.68 0.096-0.32 0.16-0.608 0.256-0.8 0.064-0.288 0.16-0.608 0.256-0.864 0.16-1.28 0.32-2.496 0.48-3.168-0.16-0.672-0.256-1.28-0.384-1.952-0.032-0.16-0.096-0.32-0.128-0.48-0.128-0.416-0.288-0.864-0.416-1.376-29.696-64-71.872-120.032-121.952-165.056l46.336-44.32c55.328 50.496 101.728 112.672 134.016 183.36 1.376 2.496 2.24 4.832 2.848 6.912 0.256 0.608 0.48 1.184 0.672 1.76 1.536 4.48 1.856 8.352 1.728 8.352 0 0 0-0.032-0.032-0.032C991.04 373.728 992 378.336 992 383.904z"  horiz-adv-x="1024" />

    
    <glyph glyph-name="tip" unicode="&#58896;" d="M911.281287 58.835246c-25.720801 0-55.650461 20.816095-55.650461 46.466288L855.630826 662.770098c0 25.579585 29.92966 46.39568 55.650461 46.39568 25.650193 0 53.123918-20.816095 53.123918-46.39568l0-557.467541C964.405205 79.65134 936.932504 58.835246 911.281287 58.835246zM678.942685 120.789273c0-34.132378-27.754111-61.954027-61.885466-61.954027L338.394568 58.835246c-34.201963 0-62.027705 27.821649-62.027705 61.954027L276.366863 243.438661l-125.804241 27.403117L150.562623 494.698195 837.057819 644.963547l0-525.927197-158.115134 34.83232L678.942685 120.789273zM638.925273 160.668539l-324.849576 75.834152 0-111.158682c0-17.168008 20.674878-30.908964 37.776372-30.908964l256.096702 0c17.169031 0 30.976502 13.740956 30.976502 30.908964L638.925273 160.668539zM90.640881 244.629789c-17.172101 0-31.04711 13.877055-31.04711 31.051203L59.593771 492.384499c0 17.174148 13.876032 31.05018 31.04711 31.05018 17.029862 0 39.947827-13.876032 39.947827-31.05018l0-216.70453C130.587686 258.505821 107.670743 244.629789 90.640881 244.629789z"  horiz-adv-x="1024" />

    
    <glyph glyph-name="add" unicode="&#58882;" d="M874.338462 415.507692H543.507692V746.338462a31.507692 31.507692 0 0 1-63.015384 0v-330.83077H149.661538a31.507692 31.507692 0 0 1 0-63.015384h330.83077v-330.83077a31.507692 31.507692 0 0 1 63.015384 0V352.492308h330.83077a31.507692 31.507692 0 0 1 0 63.015384z"  horiz-adv-x="1024" />

    
    <glyph glyph-name="close" unicode="&#58973;" d="M1074.977 432.859l1.763-1.396q-0.869 0.735-1.763 1.396zM0 430.85l3.184 2.523c-3.822-2.659-6.942-6.058-9.205-10.009zM111.983-98.893c-0.282-1.886-0.576-3.759-0.833-5.657 0.53 2.012 0.843 4.326 0.86 6.71zM83.758-125.833zM55.569-95.477q0.306 2.118 0.637 4.237c-0.43-1.794-0.687-3.859-0.71-5.981zM1021.931-88.901c0.355-2.216 0.673-4.445 0.992-6.674-0.088 2.676-0.521 5.217-1.258 7.625zM965.272-103.46c-0.245 1.751-0.502 3.49-0.771 5.229 0.137-2.393 0.541-4.636 1.182-6.776zM538.634 896c-282.327 0-512-229.673-512-512s229.673-512 512-512 512 229.673 512 512-229.673 512-512 512zM538.634-54.516c-241.808 0-438.528 196.757-438.528 438.528s196.721 438.516 438.528 438.516 438.528-196.721 438.528-438.528-196.757-438.528-438.528-438.528zM748.554 590.554c-6.631 6.706-15.832 10.858-26.003 10.858-10.025 0-19.107-4.034-25.712-10.568l-158.353-156.638-155.944 156.458c-6.621 6.639-15.777 10.747-25.893 10.747-20.195 0-36.566-16.371-36.566-36.566 0-10.079 4.078-19.206 10.674-25.82l155.723-156.249-156.997-155.258c-6.704-6.632-10.856-15.833-10.856-26.003 0-20.197 16.373-36.571 36.571-36.571 10.027 0 19.112 4.036 25.718 10.571l157.214 155.512 158.466-159.030c6.568-6.345 15.524-10.255 25.393-10.255 20.194 0 36.564 16.37 36.564 36.564 0 9.814-3.867 18.726-10.16 25.293l-158.27 158.833 158.136 156.409c6.706 6.631 10.858 15.832 10.858 26.003 0 10.025-4.034 19.107-10.568 25.712z"  horiz-adv-x="1076" />

    
    <glyph glyph-name="clock" unicode="&#58897;" d="M896 896H128C57.6 896 0 838.4 0 768v-768c0-70.4 57.6-128 128-128h768c70.4 0 128 57.6 128 128V768c0 70.4-57.6 128-128 128z m85.333333-896c0-47.061333-38.293333-85.333333-85.333333-85.333333H128c-47.061333 0-85.333333 38.272-85.333333 85.333333V768c0 47.061333 38.272 85.333333 85.333333 85.333333h768c47.04 0 85.333333-38.272 85.333333-85.333333v-768zM512 768C299.861333 768 128 596.074667 128 384s171.861333-384 384-384c212.010667 0 384 171.925333 384 384S724.010667 768 512 768z m0-725.333333c-188.202667 0-341.333333 153.130667-341.333333 341.333333S323.797333 725.333333 512 725.333333s341.333333-153.130667 341.333333-341.333333-153.130667-341.333333-341.333333-341.333333zM640 384h-128V597.333333a21.333333 21.333333 0 1 1-42.666667 0v-256h170.666667a21.333333 21.333333 0 1 1 0 42.666667z"  horiz-adv-x="1024" />

    
    <glyph glyph-name="log-out" unicode="&#59081;" d="M765.395478 228.841739l51.734261-51.712L1024 384l-206.870261 206.870261-51.734261-51.712 118.583652-118.583652H365.746087v-73.149218H883.97913zM821.693217 73.683478a435.934609 435.934609 0 0 0-310.316521-128.534261 436.023652 436.023652 0 0 0-310.316522 128.534261C118.160696 156.560696 73.149217 266.774261 73.149217 384c0 117.203478 45.011478 227.417043 127.910957 310.316522a436.023652 436.023652 0 0 0 310.316522 128.534261c117.225739 0 227.417043-45.634783 310.316521-128.534261 5.787826-5.787826 11.353043-11.709217 16.762435-17.741913h93.094957C839.034435 809.182609 685.345391 896 511.398957 896 228.61913 896 0 666.757565 0 384c0-282.779826 228.61913-512 511.398957-512 173.968696 0 327.657739 86.79513 420.151652 219.425391h-93.094957a445.217391 445.217391 0 0 0-16.762435-17.741913z"  horiz-adv-x="1024" />

    
    <glyph glyph-name="attention_light" unicode="&#59380;" d="M979.2 384c0 2.133333 0 4.266667-2.133333 8.533333v2.133334c0 2.133333 0 2.133333-2.133334 4.266666C891.733333 582.4 710.4 701.866667 512 701.866667c-198.4 0-379.733333-119.466667-465.066667-302.933334 0-2.133333-2.133333-2.133333-2.133333-4.266666v-2.133334c-2.133333-4.266667-2.133333-6.4-2.133333-6.4v-14.933333s0-6.4 2.133333-8.533333c0-2.133333 0-4.266667 2.133333-8.533334 0-2.133333 0-4.266667 2.133334-4.266666 85.333333-185.6 270.933333-309.333333 465.066666-309.333334 194.133333 0 379.733333 123.733333 462.933334 307.2 0 2.133333 2.133333 2.133333 2.133333 4.266667v2.133333c2.133333 4.266667 2.133333 6.4 2.133333 6.4 0 2.133333 2.133333 6.4 2.133334 10.666667-2.133333 6.4-2.133333 10.666667-4.266667 12.8zM85.333333 366.933333z m853.333334 4.266667v-4.266667c-78.933333-170.666667-249.6-283.733333-426.666667-283.733333S166.4 196.266667 87.466667 364.8v2.133333 2.133334 4.266666 2.133334 2.133333 2.133333c78.933333 168.533333 245.333333 277.333333 424.533333 277.333334 181.333333 0 347.733333-108.8 424.533333-277.333334V373.333333c2.133333 0 2.133333 0 2.133334-2.133333zM512 512c-83.2 0-149.333333-66.133333-149.333333-149.333333s66.133333-149.333333 149.333333-149.333334 149.333333 66.133333 149.333333 149.333334-66.133333 149.333333-149.333333 149.333333z m0-256c-59.733333 0-106.666667 46.933333-106.666667 106.666667s46.933333 106.666667 106.666667 106.666666 106.666667-46.933333 106.666667-106.666666-46.933333-106.666667-106.666667-106.666667z"  horiz-adv-x="1024" />

    
    <glyph glyph-name="gouxuan" unicode="&#58945;" d="M512-121.6C233.6-121.6 7.2 105.6 7.2 384S233.6 889.6 512 889.6s505.6-226.4 505.6-505.6-226.4-505.6-505.6-505.6zM512 841.6C260 841.6 55.2 636 55.2 384s204.8-457.6 457.6-457.6 457.6 204.8 457.6 457.6S764.8 841.6 512 841.6z m-31.2-652s-0.8 0 0 0h-5.6v0.8H472l-1.6 0.8c-0.8 0-0.8 0-1.6 0.8h-1.6l-0.8 0.8-2.4 0.8-1.6 1.6-202.4 170.4c-4.8 4-8 9.6-8.8 16-0.8 6.4 1.6 12.8 5.6 17.6 4.8 5.6 11.2 8.8 18.4 8.8 5.6 0 11.2-2.4 15.2-5.6l185.6-156.8 296.8 296.8c4.8 4.8 10.4 7.2 16.8 7.2s12.8-2.4 16.8-7.2c4.8-4.8 7.2-10.4 7.2-16.8s-2.4-12.8-7.2-16.8l-312-312-2.4-1.6-0.8-0.8c-0.8-0.8-1.6-0.8-2.4-1.6 0-0.8 0-0.8-0.8-0.8l-0.8-0.8c-0.8 0-2.4-0.8-2.4-0.8-0.8 0-0.8 0-1.6-0.8H480.8z"  horiz-adv-x="1024" />

    
    <glyph glyph-name="weixinzhifu" unicode="&#58880;" d="M390.382022 251.20008199999995c-61.291946-37.023203-70.382769 20.775774-70.382769 20.775774l-76.811198 194.149947c-29.559398 92.262185 25.577185 41.597058 25.577185 41.597059s47.30869-38.763998 83.216872-62.38421c35.885427-23.631589 76.788443-6.940428 76.788443-6.940429l502.179806 251.072837C838.289955 814.353257 685.247823 896 511.97605 896 229.204799 896 0 678.707707 0 410.647888c0-154.202662 75.889601-291.418342 194.115814-380.358224l-21.321906-132.755601s-10.399265-38.752621 25.622696-20.775774c24.541809 12.24246 87.108063 56.183336 124.358821 82.886918A535.232173 535.232173 0 0 1 511.998805-74.71560199999999c282.748496 0 511.998805 217.292293 511.998806 485.352112 0 77.641774-19.319422 150.971381-53.53232 216.063496-160.005316-104.265712-532.137425-346.589058-580.083269-375.499924z"  horiz-adv-x="1024" />

    
    <glyph glyph-name="decrese" unicode="&#58941;" d="M288 358.4h448a25.6 25.6 0 1 1 0 51.2h-448a25.6 25.6 0 1 1 0-51.2z"  horiz-adv-x="1024" />

    
    <glyph glyph-name="dianping" unicode="&#58881;" d="M350.8224 849.865387C246.862507 822.5792 211.258027 693.6678400000001 286.62784 616.9975469999999c87.067307-88.10496 237.544107-26.248533 237.544107 97.723733C524.171947 805.423787 438.14912 872.738133 350.8224 849.865387zM684.274347 828.81536c-8.577707-2.338133-34.566827-9.61536-57.954987-15.854933-41.844053-10.91584-42.36288-11.175253-41.065813-17.670827 59.255467-253.14304-328.768853-365.417813-410.637653-119.036587-4.939093 15.076693 0.77824 15.076693-53.538133 0.52224-72.772267-19.493547-68.355413-17.933653-67.57376-24.43264 12.47232-109.93664 168.413867-230.529707 304.080213-235.728213 38.98368-1.55648 40.543573-2.338133 21.050027-9.355947-165.812907-61.074773-282.248533-277.568853-250.54208-465.73568 5.45792-31.709867 3.90144-30.409387 25.992533-24.692053 10.134187 2.604373 41.581227 10.656427 70.171307 17.937067 66.013867 16.889173 63.935147 16.114347 61.074773 26.24512-16.110933 56.139093 2.60096 148.401493 42.103467 207.141547 126.83264 188.945067 415.05792 152.040107 490.949973-62.63808 2.341547-7.277227 5.720747-13.513387 7.021227-14.032213 3.11296-1.041067 142.424747 34.57024 145.281707 36.908373 1.819307 1.55648-14.032213 44.4416-23.9104 65.754453-70.95296 151.780693-214.155947 244.824747-384.129707 249.501013l-46.260907 1.559893 20.012373 11.175253c127.86688 73.03168 198.0416 220.39552 170.233173 357.881173C702.464 835.310933 703.505067 834.532693 684.274347 828.81536L684.274347 828.81536z"  horiz-adv-x="1024" />

    
    <glyph glyph-name="jian" unicode="&#59013;" d="M512-76.8a460.8 460.8 0 1 1 0 921.6 460.8 460.8 0 0 1 0-921.6z m0-51.2C229.2224-128 0 101.2224 0 384S229.2224 896 512 896s512-229.2224 512-512-229.2224-512-512-512zM204.8 396.8c0-21.3504 17.2032-38.4 38.4-38.4h537.6c21.3504 0 38.4 17.2032 38.4 38.4a38.2976 38.2976 0 0 1-38.4 38.4H243.2a38.3488 38.3488 0 0 1-38.4-38.4z"  horiz-adv-x="1024" />

    
    <glyph glyph-name="xiangji" unicode="&#58994;" d="M114.107733-104.8576C61.44-104.8576 0-52.224 0 18.0224v614.4C0 702.634667 78.984533 746.496 122.88 746.496h175.547733L386.184533 895.726933h465.2032l96.529067-158.0032h175.547733C1184.904533 746.530133 1228.8 667.511467 1228.8 623.650133v-614.4c0-61.44-61.44-114.107733-114.107733-114.107733H114.107733zM122.88 658.7392c-8.772267 0-35.1232-8.772267-35.1232-35.089067v-614.4c0-17.578667 17.578667-35.1232 26.350933-35.1232h1000.584534c8.772267 0 35.1232 17.544533 35.1232 35.1232v614.4s-8.772267 35.089067-35.1232 35.089067H895.317333l-26.350933 35.1232L798.72 807.936H430.08l-70.212267-114.107733-17.544533-35.1232H122.88zM614.4 88.234667c-149.1968 0-272.0768 122.88-272.0768 272.0768 0 149.230933 122.88 272.110933 272.0768 272.110933s272.0768-122.88 272.0768-272.110933c0-149.1968-122.88-272.0768-272.0768-272.0768z m0 456.3968c-105.335467 0-184.32-87.7568-184.32-184.32 0-96.529067 87.7568-184.32 184.32-184.32s184.32 87.790933 184.32 184.32c0 96.5632-78.984533 184.32-184.32 184.32z"  horiz-adv-x="1229" />

    
    <glyph glyph-name="phone" unicode="&#58883;" d="M991.216 63.363000000000056l-145.75 145.214c-24.245 19.103-44.351 10.889-60.048-3.741-100.261-145.549-300.051 59.45-383.746 146.887-156.567 163.649-131.453 249.551-56.775 304.257 17.365 16.565 10.218 44.952-3.608 56.706L204.156 848.685c-12.756 17.635-41.546 30.592-67.13 6.212l-73.74-84.767c-3.677-6.012-11.224-18.302-11.491-18.702l-0.602-0.667c-11.956-18.969-22.978-42.415-22.978-72.14 0-19.305 3.342-38.274 7.883-53.368-1.668-1.738-0.069 0.133 0 0 31.66-115.025 142.81-270.461 293.3-428.769 159.247-156.635 330.709-276.2 444.929-299.444 15.632-4.611 35.203-5.611 54.908-3.071 21.777 6.278 38.675 15.563 53.171 25.579 3.742 2.542 18.102 12.693 26.049 18.84l84.297 68.997c12.156 18.372 14.029 35.001-1.536 55.978z"  horiz-adv-x="1024" />

    
    <glyph glyph-name="zhifubaozhifu" unicode="&#58976;" d="M1024.01134 195.189369V698.684385c0 108.863787-88.451827 197.315615-197.315615 197.315615H197.326955C88.463167 896 0.01134 807.548173 0.01134 698.684385v-629.36877c0-108.863787 88.451827-197.315615 197.315615-197.315615h629.36877c95.255814 0 176.903654 71.44186 193.913622 159.893688-51.0299 23.813953-278.963455 119.069767-394.63123 176.903654-88.451827-108.863787-183.707641-173.501661-323.189368-173.501661s-234.737542 88.451827-224.531562 193.913621c6.803987 71.44186 54.431894 183.707641 261.953489 163.295681 108.863787-10.20598 159.893688-30.61794 248.345514-61.23588 23.813953 40.82392 40.82392 88.451827 57.833888 139.481728H248.356855v40.82392H445.67247V583.016611H207.532935V627.242525h238.139535v102.059801s3.401993 17.009967 20.41196 17.009966h98.657807v-119.069767H819.891739v-44.225914h-255.149502v-71.44186h207.521595c-20.41196-78.245847-47.627907-149.687708-85.049834-210.923588 61.23588-23.813953 336.797342-105.461794 336.797342-105.461794zM285.778782 103.335548c-149.687708 0-173.501661 95.255814-163.295681 132.677741 6.803987 40.82392 51.0299 91.853821 132.677741 91.853821 95.255814 0 180.305648-23.813953 282.365448-74.843854-71.44186-95.255814-159.893688-149.687708-251.747508-149.687708z"  horiz-adv-x="1027" />

    
    <glyph glyph-name="star" unicode="&#59387;" d="M956 498q-8 23-26.5 38.5T887 556l-205 31-91 195q-12 24-33.5 37T512 832q-24 0-45.5-13T434 782l-92-195-205-31q-24-4-42.5-19.5t-26.5-39q-8-23.5-2.5-47T88 409l151-154-36-218q-3-19 2-37t17.5-33q12.5-15 30-23t36.5-8q22 0 42 11l181 100 181-100q20-11 42-11 19 0 36.5 8t30 22.5q12.5 14.5 17.5 33t2 37.5l-36 218 151 154q17 18 22.5 41.5T956 498z"  horiz-adv-x="1024" />

    


  </font>
</defs>
</svg>
